<svg xmlns="http://www.w3.org/2000/svg" viewBox="0 0 400 300" role="img" aria-label="Level 8: Workflows">
  <rect width="400" height="300" rx="16" fill="#1a1a2e"/>
  <rect x="60" y="70" width="70" height="40" rx="6" fill="#2a2a4e" stroke="#e67e22" stroke-width="1" opacity="0.5"/>
  <text x="95" y="94" text-anchor="middle" fill="#e67e22" font-family="system-ui" font-size="9" opacity="0.6">Step 1</text>
  <rect x="165" y="70" width="70" height="40" rx="6" fill="#2a2a4e" stroke="#e67e22" stroke-width="1" opacity="0.5"/>
  <text x="200" y="94" text-anchor="middle" fill="#e67e22" font-family="system-ui" font-size="9" opacity="0.6">Step 2</text>
  <rect x="270" y="70" width="70" height="40" rx="6" fill="#2a2a4e" stroke="#e67e22" stroke-width="1" opacity="0.5"/>
  <text x="305" y="94" text-anchor="middle" fill="#e67e22" font-family="system-ui" font-size="9" opacity="0.6">Step 3</text>
  <path d="M130 90 L165 90" stroke="#e67e22" stroke-width="2" opacity="0.4"/>
  <polygon points="160,86 168,90 160,94" fill="#e67e22" opacity="0.4"/>
  <path d="M235 90 L270 90" stroke="#e67e22" stroke-width="2" opacity="0.4"/>
  <polygon points="265,86 273,90 265,94" fill="#e67e22" opacity="0.4"/>
  <rect x="140" y="140" width="120" height="30" rx="6" fill="#2a2a4e" stroke="#27AE60" stroke-width="1" opacity="0.4"/>
  <text x="200" y="160" text-anchor="middle" fill="#27AE60" font-family="system-ui" font-size="9" opacity="0.6">Result</text>
  <path d="M305 110 L200 140" stroke="#27AE60" stroke-width="1" opacity="0.3"/>
  <text x="200" y="215" text-anchor="middle" fill="#7d8590" font-family="system-ui" font-size="14" font-weight="600">PLACEHOLDER</text>
  <text x="200" y="238" text-anchor="middle" fill="#555" font-family="system-ui" font-size="11">Replace with Storyset: "Workflow" or "Process"</text>
  <text x="200" y="258" text-anchor="middle" fill="#555" font-family="system-ui" font-size="11">Rafiki style · Color: #E67E22</text>
</svg>
